<?xml version="1.0" encoding="utf-8"?>
<!-- Generator: Adobe Illustrator 24.0.1, SVG Export Plug-In . SVG Version: 6.00 Build 0)  -->
<svg version="1.1" id="Layer_1" xmlns="http://www.w3.org/2000/svg" xmlns:xlink="http://www.w3.org/1999/xlink" x="0px" y="0px"
	 width="134px" height="48px" viewBox="0 0 134 48" style="enable-background:new 0 0 134 48;" xml:space="preserve">
<style type="text/css">
	.st0{fill:#DC1E35;}
</style>
<path class="st0" d="M88.6,0c6.1,0,11,5,11,11.1s-4.9,11.1-11,11.1s-11-5-11-11.1C77.5,5,82.5,0,88.6,0z M133.8,11.3
	c0.3,0.2,0.3,0.6-0.3,1.7c-3.5,7.3-26,46.5-65.6,31.7C42.5,35.2,36.7,14,1.6,19.8C0.5,20,0.1,19.9,0,19.5c-0.2-0.5,0.5-0.8,1.2-1.2
	c9.6-5.7,23.9-9.1,35.7-6.1c21.5,5.4,30.2,22.1,51.7,22.1c16.4,0,27.3-5.2,43.9-22.3C133.2,11.2,133.5,11,133.8,11.3L133.8,11.3z"/>
</svg>
